<?xml version="1.0" standalone="no"?>
<!DOCTYPE svg PUBLIC "-//W3C//DTD SVG 20010904//EN"
 "http://www.w3.org/TR/2001/REC-SVG-20010904/DTD/svg10.dtd">
<svg version="1.0" xmlns="http://www.w3.org/2000/svg"
 width="7972.000000pt" height="6909.000000pt" viewBox="0 0 7972.000000 6909.000000"
 preserveAspectRatio="xMidYMid meet">

<g transform="translate(0.000000,6909.000000) scale(0.100000,-0.100000)"
fill="#000000" stroke="none">
<path d="M39134 56440 c-28 -11 -64 -58 -64 -83 0 -11 24 -95 54 -186 182
-554 294 -1149 351 -1856 30 -374 36 -559 42 -1230 l5 -680 -165 171 c-177
182 -305 299 -467 425 -86 67 -107 79 -139 79 -28 0 -45 -7 -65 -26 -32 -33
-33 -56 -6 -236 54 -365 75 -727 65 -1123 l-6 -291 27 -27 c46 -47 119 -35
150 25 22 43 31 554 15 833 -11 194 -36 455 -47 504 -5 22 -3 22 38 -10 135
-107 430 -417 565 -595 34 -45 69 -84 78 -88 26 -9 74 -7 97 5 48 26 48 33 48
753 0 862 -16 1273 -71 1796 -61 591 -174 1146 -329 1625 -55 169 -71 200
-111 214 -37 13 -37 13 -65 1z"/>
<path d="M27966 55499 c-239 -35 -502 -134 -706 -266 -128 -84 -178 -129 -186
-167 -12 -66 49 -127 112 -112 15 4 52 26 83 50 222 170 515 285 790 312 94 9
133 38 133 99 0 31 -6 45 -31 67 -34 31 -76 34 -195 17z"/>
<path d="M28285 55190 c-29 -12 -55 -43 -128 -155 -193 -297 -342 -640 -431
-992 -43 -172 -79 -397 -71 -440 12 -67 98 -96 151 -50 24 21 29 39 55 193 76
450 227 833 475 1211 76 115 87 150 63 195 -6 11 -26 26 -44 34 -39 16 -42 16
-70 4z"/>
<path d="M31109 54202 c-45 -22 -53 -49 -75 -257 -36 -338 -21 -791 37 -1145
38 -230 65 -332 94 -357 38 -33 89 -31 126 6 36 36 36 52 3 206 -32 154 -60
344 -75 513 -15 179 -7 677 15 839 17 127 14 155 -20 184 -30 26 -67 30 -105
11z"/>
<path d="M57330 53347 c-27 -14 -50 -51 -50 -83 0 -23 154 -423 283 -734 136
-328 261 -612 450 -1021 39 -84 65 -109 113 -109 45 0 80 32 100 93 9 28 28
74 41 101 30 59 149 184 162 171 5 -6 105 -343 222 -750 235 -814 227 -795
304 -795 44 0 95 45 95 83 0 24 -448 1590 -472 1650 -14 36 -45 57 -84 57 -43
0 -157 -59 -222 -114 -58 -50 -142 -144 -142 -160 -3 -54 -407 889 -611 1424
-63 164 -88 200 -137 200 -15 0 -38 -6 -52 -13z"/>
<path d="M47269 52821 c-45 -45 -40 -80 26 -179 251 -374 518 -839 754 -1310
132 -263 145 -282 199 -282 55 0 166 131 243 286 l46 95 116 -193 c333 -559
695 -1240 941 -1773 48 -104 95 -198 105 -208 9 -10 34 -20 54 -24 32 -5 41
-1 72 30 20 20 35 45 35 58 0 32 -93 234 -290 634 -230 464 -409 797 -667
1237 -222 379 -339 563 -368 576 -74 34 -126 -7 -144 -113 -16 -94 -54 -208
-92 -274 l-31 -54 -117 229 c-64 126 -155 297 -201 379 -191 344 -499 839
-551 888 -41 38 -90 37 -130 -2z"/>
<path d="M39328 50575 c-15 -9 -32 -24 -38 -35 -26 -49 -14 -76 174 -384 963
-1582 1651 -2925 2171 -4241 596 -1508 953 -2954 1069 -4340 31 -368 54 -927
38 -910 -6 6 -236 318 -512 695 -276 377 -511 693 -522 703 -23 19 -79 23
-110 6 -42 -22 -48 -64 -28 -184 67 -392 76 -835 25 -1233 -30 -232 -102 -561
-161 -735 -13 -39 -24 -85 -24 -102 0 -70 75 -114 138 -81 35 18 54 61 108
255 132 468 192 1047 154 1501 -5 63 -8 115 -6 117 2 2 222 -296 490 -661 303
-413 496 -668 509 -672 46 -15 81 -6 111 27 l29 33 -6 390 c-6 384 -22 685
-53 1001 -242 2509 -1204 5098 -3029 8155 -248 415 -402 664 -423 683 -27 24
-72 30 -104 12z"/>
<path d="M38433 49788 c-28 -13 -56 -72 -48 -98 4 -11 51 -89 105 -173 128
-198 260 -430 368 -644 75 -148 92 -175 120 -189 62 -29 132 17 132 89 0 87
-521 996 -585 1021 -24 9 -67 6 -92 -6z"/>
<path d="M38027 49609 c-42 -25 -47 -63 -27 -224 41 -327 70 -755 70 -1017 0
-161 7 -191 51 -214 42 -21 75 -17 110 14 l31 27 -1 190 c-2 294 -26 665 -67
1005 -18 155 -29 195 -57 215 -25 17 -83 19 -110 4z"/>
<path d="M66593 46926 c-37 -17 -53 -43 -53 -88 0 -45 80 -509 141 -818 61
-311 114 -548 180 -823 62 -252 68 -263 156 -261 73 1 166 41 214 90 18 19 36
34 40 34 4 0 21 -35 37 -77 147 -382 213 -808 191 -1220 -8 -145 -7 -160 10
-183 29 -40 65 -53 107 -40 56 19 65 42 77 212 22 317 -27 732 -124 1059 -71
240 -206 556 -247 578 -63 34 -136 -9 -148 -87 -4 -26 -12 -58 -19 -72 -17
-33 -73 -85 -82 -77 -24 24 -222 970 -302 1441 -43 255 -51 291 -72 311 -31
31 -67 38 -106 21z"/>
<path d="M12840 46273 c-35 -13 -59 -51 -175 -283 -203 -406 -372 -788 -538
-1215 -124 -321 -249 -684 -250 -728 -1 -32 4 -44 31 -68 42 -38 82 -38 121
-1 22 21 42 68 91 212 186 555 436 1152 717 1714 68 137 125 261 125 277 2 63
-64 113 -122 92z"/>
<path d="M33864 45923 c-388 -550 -828 -1078 -1234 -1483 -509 -507 -897 -796
-1430 -1064 -800 -404 -1545 -538 -2143 -387 -135 34 -305 103 -407 167 -40
24 -75 43 -77 41 -7 -7 84 -123 154 -197 524 -556 1545 -643 2513 -214 573
254 1120 688 1601 1269 420 507 821 1204 1045 1814 30 80 52 146 50 148 -1 2
-34 -41 -72 -94z"/>
<path d="M60771 45484 c-41 -34 -41 -67 4 -245 92 -363 232 -744 392 -1062 46
-94 59 -110 89 -123 20 -8 45 -12 57 -8 12 4 57 42 99 85 42 44 81 79 87 79
24 0 156 -306 240 -557 140 -418 209 -797 231 -1261 11 -225 11 -227 37 -254
46 -48 118 -36 149 24 14 28 16 55 10 203 -25 615 -153 1183 -388 1725 -118
271 -169 350 -224 350 -34 0 -101 -32 -176 -83 l-66 -46 -61 137 c-124 282
-215 545 -287 832 -39 153 -48 178 -74 203 -39 35 -79 35 -119 1z"/>
<path d="M48138 44591 c-33 -29 -33 -30 -31 -113 9 -285 94 -823 193 -1218 43
-172 134 -480 150 -511 16 -28 68 -52 99 -44 35 9 55 28 106 105 24 36 70 96
101 134 68 81 64 84 88 -84 59 -419 46 -833 -39 -1246 -14 -65 -25 -127 -25
-137 0 -10 13 -32 29 -48 40 -40 96 -41 134 -1 22 23 31 52 56 177 57 286 66
389 66 745 -1 355 -10 454 -65 735 -27 136 -33 153 -60 178 -61 55 -105 34
-266 -128 l-111 -113 -37 131 c-102 372 -170 738 -211 1129 -8 81 -15 168 -15
193 0 123 -86 184 -162 116z"/>
<path d="M11323 41721 c-17 -11 -37 -30 -44 -42 -17 -32 -6 -851 15 -1109 63
-786 195 -1490 416 -2225 42 -140 56 -175 81 -197 47 -44 115 -33 144 23 20
38 21 30 -44 244 -183 595 -317 1270 -381 1910 -34 347 -41 488 -47 929 -6
417 -6 429 -27 452 -29 34 -74 39 -113 15z"/>
<path d="M53755 41471 c-34 -15 -52 -43 -83 -132 -40 -114 -78 -289 -93 -424
-21 -194 1 -481 50 -662 22 -82 110 -111 164 -55 32 34 33 51 7 173 -65 303
-44 622 59 923 27 79 29 91 17 120 -7 17 -20 37 -28 43 -20 17 -69 24 -93 14z"/>
<path d="M54793 40882 c-91 -77 -290 -287 -399 -423 -458 -572 -739 -1265
-805 -1989 -14 -158 -7 -413 15 -545 41 -243 148 -493 260 -610 33 -35 50 -45
75 -45 43 0 68 14 86 50 23 45 19 62 -39 146 -127 188 -183 359 -208 637 -33
385 74 949 267 1402 182 427 426 786 762 1123 90 90 166 175 169 188 14 54
-39 114 -100 114 -15 0 -48 -19 -83 -48z"/>
<path d="M38400 39823 c-8 -3 -170 -72 -360 -153 -907 -388 -1487 -683 -1995
-1015 -658 -429 -1194 -938 -1561 -1480 -77 -114 -94 -146 -94 -177 0 -55 36
-93 88 -93 52 0 64 12 159 154 296 440 720 870 1216 1229 586 425 1184 743
2272 1208 242 104 367 163 383 180 61 69 -20 180 -108 147z"/>
<path d="M44729 39309 c-553 -23 -1081 -98 -1594 -225 -271 -67 -340 -90 -364
-120 -31 -40 -27 -89 9 -126 37 -37 52 -36 235 15 474 134 998 219 1585 257
216 14 824 14 1065 0 1221 -71 2433 -323 4100 -851 121 -39 699 -229 1285
-424 1122 -373 1484 -489 1950 -629 2257 -674 4466 -989 6765 -963 292 4 622
11 735 17 1889 94 2929 288 3807 710 691 332 1317 827 2204 1742 232 240 249
259 249 293 0 20 -5 45 -11 57 -14 26 -69 49 -100 41 -14 -3 -184 -166 -399
-382 -691 -694 -1106 -1042 -1604 -1348 -519 -318 -1096 -532 -1828 -678 -600
-119 -1370 -198 -2408 -247 -333 -15 -1432 -15 -1770 0 -1582 74 -2955 268
-4410 623 -843 206 -1344 358 -3050 924 -1406 467 -1743 574 -2331 739 -1567
440 -2904 626 -4120 575z"/>
<path d="M39995 38964 c-1672 -250 -2894 -661 -3870 -1302 -486 -319 -762
-563 -1445 -1282 -517 -545 -790 -806 -1155 -1110 -467 -388 -1026 -770 -1585
-1083 -214 -119 -627 -326 -815 -407 -143 -62 -180 -94 -171 -149 7 -46 46
-81 91 -81 20 0 90 24 167 59 861 381 1707 908 2443 1521 368 306 644 571
1170 1125 353 372 577 595 740 739 631 559 1387 979 2319 1291 612 205 1307
365 2086 479 231 35 235 36 263 66 16 19 27 42 27 60 0 36 -44 87 -80 94 -14
2 -97 -7 -185 -20z"/>
<path d="M19997 38630 c-3 -19 -9 -64 -12 -100 -36 -375 -269 -805 -614 -1132
-383 -363 -909 -666 -1480 -855 -182 -60 -379 -107 -595 -143 -680 -112 -1371
-137 -2184 -79 -85 6 -156 8 -158 6 -8 -8 243 -96 430 -151 375 -111 799 -189
1226 -226 163 -14 609 -14 780 0 365 30 711 102 1025 215 175 62 483 216 630
314 593 396 970 956 1036 1541 21 184 -4 431 -59 590 l-20 55 -5 -35z"/>
<path d="M26740 38505 c-233 -52 -418 -175 -469 -309 -39 -105 -22 -243 46
-381 38 -78 120 -187 153 -205 17 -9 20 -5 29 43 6 28 20 135 31 237 21 203
39 284 75 345 52 89 121 132 295 185 58 18 116 37 130 42 25 10 25 10 -15 30
-52 27 -185 33 -275 13z"/>
<path d="M25130 37900 c-107 -29 -265 -109 -331 -168 -54 -49 -110 -134 -97
-147 4 -4 44 10 90 30 180 80 203 88 274 93 131 8 195 -27 422 -235 70 -64
145 -129 167 -145 l40 -29 8 43 c10 56 -7 189 -33 269 -44 130 -122 234 -212
280 -62 33 -222 37 -328 9z"/>
<path d="M26323 36852 c-31 -5 -73 -58 -73 -91 0 -16 56 -151 125 -302 85
-187 133 -305 149 -369 156 -617 71 -1392 -219 -1997 -140 -293 -304 -526
-547 -780 -87 -91 -98 -106 -98 -138 0 -27 8 -44 30 -67 27 -27 36 -30 73 -25
38 5 53 17 152 119 480 496 763 1105 851 1833 19 155 24 498 11 682 l-8 112
118 -120 c620 -635 1383 -1027 2208 -1135 162 -22 560 -24 720 -6 260 31 515
89 757 172 187 63 214 75 232 102 25 35 20 94 -9 123 -34 34 -73 32 -191 -11
-858 -313 -1699 -276 -2509 110 -469 224 -949 597 -1245 966 -128 161 -164
223 -298 515 -68 149 -129 276 -136 283 -15 16 -65 29 -93 24z"/>
<path d="M45820 35286 c-618 -267 -991 -441 -1600 -747 -537 -269 -939 -484
-972 -520 -18 -18 -28 -40 -28 -59 0 -18 11 -41 28 -60 25 -28 40 -33 190 -62
89 -18 162 -35 162 -39 0 -4 -87 -84 -192 -180 -250 -225 -885 -860 -1109
-1109 -249 -277 -440 -501 -451 -529 -27 -71 52 -150 121 -121 16 6 88 82 162
168 457 536 1032 1121 1549 1577 80 70 164 145 187 165 64 58 69 120 13 161
-19 14 -233 67 -279 69 -25 1 1010 525 1394 705 318 149 735 335 1030 460 144
60 238 106 253 121 50 56 6 154 -70 154 -20 -1 -173 -61 -388 -154z"/>
<path d="M65402 34097 c-18 -11 -233 -301 -984 -1331 l-50 -69 -64 194 c-43
133 -70 199 -85 212 -24 19 -80 23 -109 7 -11 -6 -51 -73 -90 -149 -275 -542
-663 -984 -1148 -1308 -70 -46 -137 -96 -149 -109 -58 -63 10 -170 94 -149 15
3 84 44 153 90 443 296 863 745 1120 1198 24 42 47 77 50 77 4 0 28 -70 55
-156 27 -86 57 -167 67 -180 26 -33 80 -41 117 -18 18 12 242 310 562 749 643
882 599 819 599 861 0 66 -81 114 -138 81z"/>
<path d="M28775 33360 c-49 -11 -220 -44 -380 -75 -2528 -489 -5238 -1221
-7335 -1983 -911 -331 -1670 -681 -2305 -1062 -1518 -911 -2608 -2200 -3095
-3660 -109 -325 -189 -678 -224 -980 -18 -155 -21 -456 -6 -580 55 -441 254
-854 568 -1181 434 -453 974 -649 1930 -701 554 -30 1041 56 1532 269 635 276
1298 774 2465 1853 348 322 355 329 355 373 0 52 -43 97 -94 97 -39 0 -15 21
-382 -320 -546 -506 -1079 -965 -1425 -1225 -688 -516 -1250 -769 -1873 -840
-181 -21 -559 -21 -782 0 -212 19 -220 21 -202 42 10 12 12 57 10 197 -12 667
200 1285 616 1806 81 100 255 280 360 371 50 43 64 61 69 90 4 30 0 42 -25 70
-24 27 -37 34 -70 34 -48 0 -98 -39 -283 -224 -480 -480 -781 -1121 -849
-1810 -13 -129 -13 -455 -1 -499 6 -19 6 -32 0 -32 -26 0 -281 54 -357 76
-715 203 -1221 757 -1359 1488 -25 130 -24 524 0 691 242 1641 1302 3179 2932
4250 883 580 1970 1055 3710 1620 2011 653 4086 1183 6304 1610 190 36 353 71
364 76 25 14 46 67 40 101 -7 36 -43 68 -84 73 -19 2 -74 -5 -124 -15z"/>
<path d="M31765 32745 c-1387 -317 -2630 -1132 -3490 -2290 -333 -448 -615
-972 -797 -1479 -34 -96 -37 -113 -28 -142 15 -43 45 -64 93 -64 49 0 79 29
102 101 56 173 206 517 312 719 736 1396 2033 2455 3530 2884 142 41 357 93
454 110 45 8 78 42 85 88 5 29 1 41 -22 67 -16 17 -42 33 -59 36 -16 2 -97
-11 -180 -30z"/>
<path d="M7219 30851 c-46 -47 -31 -126 28 -149 49 -19 6607 -1452 6645 -1452
75 0 117 102 64 155 -13 13 -35 27 -48 30 -218 53 -6601 1445 -6625 1445 -25
0 -43 -8 -64 -29z"/>
<path d="M14216 30179 c-17 -20 -26 -42 -26 -66 0 -44 16 -60 225 -213 317
-232 631 -436 975 -634 205 -118 239 -128 285 -81 30 29 32 73 10 215 -8 52
-15 103 -15 112 0 13 24 3 103 -44 244 -145 539 -280 822 -374 136 -45 174
-54 198 -47 61 17 89 93 54 146 -13 20 -50 36 -174 78 -364 121 -660 264 -973
470 -74 49 -145 89 -157 89 -36 0 -73 -22 -89 -52 -13 -26 -13 -45 7 -179 12
-82 19 -152 16 -155 -8 -8 -301 171 -537 326 -197 131 -443 304 -561 397 -45
35 -63 43 -96 43 -34 0 -46 -6 -67 -31z"/>
<path d="M35192 29861 c-98 -88 -274 -280 -387 -421 -295 -369 -527 -796 -681
-1255 -52 -154 -54 -177 -15 -216 24 -23 38 -29 73 -29 79 0 352 49 421 76 11
4 -11 -34 -52 -92 -116 -164 -258 -407 -361 -619 -149 -303 -287 -667 -274
-721 9 -34 60 -74 95 -74 53 0 82 41 134 195 164 484 452 998 787 1403 67 81
78 100 78 132 0 46 -29 86 -70 95 -21 5 -50 -3 -112 -30 -46 -21 -123 -52
-173 -70 -99 -36 -322 -91 -331 -82 -8 8 20 91 83 241 202 481 491 908 864
1277 76 74 130 136 134 152 10 37 -12 85 -46 102 -53 28 -74 20 -167 -64z"/>
<path d="M55130 28858 c-19 -13 -423 -347 -897 -741 -474 -394 -867 -717 -874
-717 -27 0 10 199 52 282 29 56 25 104 -10 139 -31 30 -67 37 -101 19 -11 -6
-73 -74 -138 -153 -399 -479 -860 -881 -1368 -1193 -68 -42 -131 -86 -139 -97
-8 -12 -15 -38 -15 -58 0 -29 7 -43 31 -63 45 -38 78 -34 178 26 390 234 766
532 1118 885 193 195 203 201 203 138 0 -46 41 -160 66 -182 30 -28 79 -30
114 -6 14 9 449 370 968 801 586 487 947 794 953 810 21 54 -17 116 -76 128
-22 4 -39 -1 -65 -18z"/>
<path d="M29220 28753 c-44 -16 -62 -52 -139 -287 -269 -814 -453 -1674 -591
-2768 -71 -571 -124 -1123 -210 -2193 -56 -695 -107 -1275 -145 -1635 -168
-1585 -423 -2753 -821 -3765 -59 -149 -74 -197 -69 -222 11 -62 91 -94 144
-57 68 48 340 827 491 1406 276 1065 414 2047 585 4173 88 1088 128 1528 191
2060 139 1184 334 2124 614 2966 71 211 78 245 60 280 -19 34 -74 55 -110 42z"/>
<path d="M9329 28491 c-40 -40 -41 -96 -1 -133 25 -25 108 -41 1487 -296 1361
-252 1462 -269 1493 -257 47 20 68 72 48 120 -10 22 -27 40 -48 49 -30 14
-2890 546 -2931 546 -10 0 -32 -13 -48 -29z"/>
<path d="M23173 27188 c-15 -7 -58 -83 -132 -232 -158 -318 -321 -567 -523
-799 -57 -65 -124 -143 -150 -173 -30 -34 -48 -64 -48 -80 0 -68 64 -116 126
-94 52 18 302 307 458 530 114 162 199 307 307 525 108 219 117 253 77 300
-26 29 -81 41 -115 23z"/>
<path d="M27495 26935 c-1058 -264 -2817 -659 -4195 -942 -486 -99 -527 -109
-552 -134 -46 -46 -29 -124 33 -149 28 -12 71 -5 457 74 1400 286 2827 605
4162 930 195 47 228 58 247 81 33 38 31 89 -6 126 -33 32 -62 35 -146 14z"/>
<path d="M16640 26533 c-23 -9 -74 -59 -164 -163 -380 -436 -596 -959 -637
-1543 -11 -147 -10 -166 5 -198 30 -64 96 -77 148 -31 l31 29 8 164 c28 578
261 1109 686 1561 61 66 70 107 31 153 -23 26 -78 40 -108 28z"/>
<path d="M7381 26407 c-55 -32 -66 -100 -23 -146 27 -30 50 -35 3279 -706
2126 -442 3260 -674 3277 -669 66 16 88 109 39 156 -26 25 -248 72 -3258 698
-1776 370 -3243 674 -3260 676 -16 2 -41 -2 -54 -9z"/>
<path d="M4147 24369 c-223 -52 -310 -335 -154 -497 67 -70 74 -72 812 -232
1632 -353 5112 -1111 14020 -3054 6841 -1492 7926 -1728 7930 -1724 11 11 165
622 158 628 -4 4 -231 55 -503 113 -540 116 -972 209 -2140 461 -732 158
-1092 235 -1955 421 -214 46 -496 107 -625 135 -129 28 -473 102 -765 165
-291 63 -960 207 -1485 320 -525 113 -1247 269 -1605 346 -357 77 -762 164
-900 194 -137 30 -428 92 -645 139 -217 47 -1263 272 -2325 501 -1061 229
-2742 591 -3735 805 -993 214 -2590 558 -3550 765 -960 207 -1900 410 -2090
451 -351 75 -376 79 -443 63z"/>
<path d="M74650 24319 c-212 -27 -1985 -245 -3940 -484 -1955 -239 -3645 -446
-3755 -460 -110 -14 -974 -119 -1920 -235 -946 -116 -1846 -226 -2000 -245
-154 -19 -595 -73 -980 -120 -385 -47 -826 -101 -980 -120 -154 -19 -595 -73
-980 -120 -385 -47 -826 -101 -980 -120 -154 -19 -595 -73 -980 -120 -385 -47
-826 -101 -980 -120 -154 -19 -577 -71 -940 -115 -363 -44 -824 -101 -1025
-126 -201 -24 -455 -55 -565 -69 -110 -13 -938 -115 -1840 -225 -902 -111
-1728 -212 -1835 -225 -624 -76 -1700 -208 -2975 -365 l-1450 -178 -295 -152
c-1705 -880 -3791 -1853 -5715 -2667 -654 -277 -1700 -703 -1724 -703 -6 0 5
42 23 93 158 432 358 784 641 1124 96 115 282 307 380 392 l60 52 -280 -137
c-2337 -1139 -4710 -1859 -7294 -2214 -577 -80 -1429 -160 -1841 -175 -80 -3
-176 -7 -215 -10 -38 -2 -142 -7 -230 -11 -88 -3 -161 -7 -162 -8 -1 -1 12
-89 28 -196 46 -300 97 -686 139 -1055 12 -102 48 -441 55 -520 3 -33 8 -80
10 -105 9 -92 35 -422 50 -630 23 -330 24 -353 31 -535 4 -93 9 -181 11 -195
9 -51 11 -1531 2 -1695 -28 -553 -57 -922 -100 -1300 -98 -862 -279 -1686
-493 -2245 -19 -50 -29 -65 -43 -63 -10 1 -135 27 -278 58 -143 31 -393 85
-555 120 -1289 277 -1810 389 -1905 410 -60 13 -301 65 -535 115 -234 50 -551
118 -705 151 -154 33 -329 71 -390 84 -181 39 -733 158 -1160 250 -220 47
-449 97 -510 110 -102 22 -235 51 -1070 230 -165 35 -406 87 -535 115 -129 28
-570 123 -980 211 -410 88 -880 189 -1045 225 -165 36 -435 94 -600 129 -792
170 -1069 230 -1300 280 -242 52 -1064 229 -1585 341 -140 30 -316 68 -390 84
-74 16 -378 82 -675 145 -297 64 -621 134 -720 155 -577 125 -1123 242 -1510
325 -242 52 -597 129 -790 170 -192 42 -370 80 -395 85 -25 5 -234 50 -465
100 -231 50 -557 120 -725 156 -168 36 -334 72 -370 79 -36 8 -222 48 -415 90
-334 72 -932 201 -1580 340 -165 35 -487 105 -715 154 -228 49 -667 143 -975
210 -308 66 -792 170 -1075 231 -283 61 -576 124 -650 140 -74 16 -263 57
-420 90 -226 49 -298 61 -350 58 -113 -6 -205 -71 -253 -177 -31 -67 -30 -178
3 -246 30 -63 98 -129 153 -149 35 -13 1401 -309 6942 -1501 215 -46 696 -150
1070 -230 374 -81 1036 -223 1470 -317 435 -93 954 -205 1155 -248 201 -43
608 -131 905 -195 297 -64 655 -141 795 -171 408 -88 874 -188 1155 -248 143
-31 289 -63 325 -71 36 -8 256 -56 490 -106 234 -50 560 -120 725 -155 165
-36 361 -78 435 -94 74 -16 315 -68 535 -115 220 -47 544 -117 720 -155 525
-113 1220 -262 1910 -411 358 -77 805 -173 995 -214 442 -95 1290 -278 1625
-350 374 -81 749 -162 905 -195 121 -26 457 -98 2045 -440 253 -54 723 -155
1044 -224 l583 -126 22582 2765 c12419 1521 22586 2767 22592 2769 13 5 120
377 219 769 579 2274 761 4603 545 6937 -113 1211 -348 2477 -676 3635 -31
110 -61 217 -66 238 -13 47 19 48 -468 -14z"/>
<path d="M44298 24124 c-9 -3 -67 -62 -129 -132 -270 -307 -546 -580 -845
-836 -137 -118 -436 -356 -447 -356 -3 0 6 29 20 64 29 72 26 104 -12 142 -31
31 -80 32 -121 2 -17 -13 -99 -80 -181 -149 -576 -484 -1195 -890 -1890 -1237
-140 -70 -248 -131 -257 -144 -40 -57 5 -148 74 -148 39 0 485 223 755 378
421 241 808 499 1155 772 63 50 127 100 142 111 l27 20 -15 -37 c-31 -74 10
-144 83 -144 27 0 57 16 130 66 400 279 763 584 1129 949 240 240 479 502 499
550 32 74 -38 151 -117 129z"/>
<path d="M6721 21187 c-13 -6 -33 -24 -44 -39 -17 -23 -19 -34 -11 -64 5 -21
20 -45 34 -55 18 -13 2413 -543 8025 -1775 4400 -966 8026 -1759 8057 -1761
51 -5 59 -3 82 20 34 34 36 95 4 132 -22 24 -518 134 -8067 1790 -4424 971
-8046 1765 -8050 1765 -3 0 -17 -6 -30 -13z"/>
<path d="M5889 16511 c-37 -37 -39 -88 -6 -126 22 -26 217 -68 4882 -1046
2865 -601 4870 -1016 4885 -1013 80 18 104 125 37 168 -24 16 -9689 2046
-9740 2046 -18 0 -39 -11 -58 -29z"/>
<path d="M14225 16518 c-35 -31 -42 -83 -16 -125 17 -26 30 -33 88 -46 274
-62 13998 -2867 14026 -2867 42 0 74 24 86 66 10 34 -5 80 -32 102 -16 14
-14048 2892 -14098 2892 -15 0 -40 -10 -54 -22z"/>
<path d="M5367 13990 c-49 -57 -25 -138 45 -155 12 -3 5314 -1169 11781 -2590
11192 -2460 11760 -2584 11792 -2571 39 17 55 42 55 88 0 43 -22 74 -63 87
-70 22 -23476 5164 -23528 5168 -53 5 -57 4 -82 -27z"/>
</g>
</svg>
