<svg width="97" height="26" viewBox="0 0 97 26" fill="none" xmlns="http://www.w3.org/2000/svg">
<path d="M5.95 19.4C4.06667 19.4 2.68333 18.925 1.8 17.975C0.916667 17.025 0.475 15.45 0.475 13.25C0.475 11.5 0.766667 9.61667 1.35 7.6C1.95 5.58333 2.9 3.85833 4.2 2.425C5.51667 0.974999 7.18333 0.249999 9.2 0.249999C10.45 0.249999 11.4583 0.524999 12.225 1.075C12.9917 1.625 13.375 2.46667 13.375 3.6C13.375 4.31667 13.2333 4.88333 12.95 5.3C12.6667 5.7 12.225 5.9 11.625 5.9C11.025 5.9 10.55 5.68333 10.2 5.25C10.5 5.1 10.7667 4.8 11 4.35C11.2333 3.9 11.35 3.43333 11.35 2.95C11.35 2.5 11.225 2.13333 10.975 1.85C10.7417 1.56667 10.3583 1.425 9.825 1.425C8.94167 1.425 8.1 2.03333 7.3 3.25C6.5 4.45 5.85 5.96667 5.35 7.8C4.86667 9.63333 4.625 11.4 4.625 13.1C4.625 14.3667 4.84167 15.3333 5.275 16C5.70833 16.6667 6.49167 17 7.625 17C8.60833 17 9.51667 16.7833 10.35 16.35C11.1833 15.9167 11.9 15.3 12.5 14.5L13.075 14.75C12.6583 15.8 12.0417 16.675 11.225 17.375C10.4083 18.075 9.53333 18.5917 8.6 18.925C7.66667 19.2417 6.78333 19.4 5.95 19.4ZM16.0768 19.1C14.8434 19.1 13.8684 18.7833 13.1518 18.15C12.4351 17.5167 12.0768 16.5167 12.0768 15.15C12.0768 14.0167 12.3101 12.7583 12.7768 11.375C13.2434 9.99167 13.9934 8.8 15.0268 7.8C16.0601 6.78333 17.3601 6.275 18.9268 6.275C21.0601 6.275 22.1268 7.60833 22.1268 10.275V10.3C22.1768 10.3167 22.2684 10.325 22.4018 10.325C22.9518 10.325 23.5851 10.1833 24.3018 9.9C25.0184 9.6 25.6684 9.24167 26.2518 8.825L26.4768 9.5C25.9934 10.0167 25.3601 10.4583 24.5768 10.825C23.8101 11.175 22.9684 11.425 22.0518 11.575C21.9184 13.0917 21.5768 14.4167 21.0268 15.55C20.4768 16.6833 19.7684 17.5583 18.9018 18.175C18.0351 18.7917 17.0934 19.1 16.0768 19.1ZM17.0768 16.85C17.4768 16.85 17.8768 16.625 18.2768 16.175C18.6768 15.7083 19.0268 15.0833 19.3268 14.3C19.6268 13.5 19.8434 12.6167 19.9768 11.65C19.5268 11.55 19.3018 11.2 19.3018 10.6C19.3018 9.91667 19.5601 9.46667 20.0768 9.25C20.0434 8.7 19.9601 8.325 19.8268 8.125C19.6934 7.90833 19.4601 7.8 19.1268 7.8C18.5768 7.8 18.0434 8.2 17.5268 9C17.0101 9.8 16.5934 10.7583 16.2768 11.875C15.9601 12.9917 15.8018 13.975 15.8018 14.825C15.8018 15.625 15.8934 16.1667 16.0768 16.45C16.2601 16.7167 16.5934 16.85 17.0768 16.85ZM29.7881 7.85H28.3881C27.9214 7.85 27.5714 7.875 27.3381 7.925C27.1214 7.975 27.0131 8.08333 27.0131 8.25C27.0131 8.28333 27.0548 8.325 27.1381 8.375C27.2381 8.40833 27.2881 8.55 27.2881 8.8C27.2881 9.23333 27.1548 9.56667 26.8881 9.8C26.6214 10.0167 26.3048 10.125 25.9381 10.125C25.6214 10.125 25.3464 10.0333 25.1131 9.85C24.8964 9.65 24.7881 9.375 24.7881 9.025C24.7881 8.675 24.9048 8.3 25.1381 7.9C25.3881 7.5 25.7298 7.16667 26.1631 6.9C26.6131 6.63333 27.1214 6.5 27.6881 6.5H34.1131L27.9881 17.075C28.0881 17.075 28.2714 17.0917 28.5381 17.125C29.1048 17.1917 29.5548 17.225 29.8881 17.225C30.6048 17.225 30.9964 17.0583 31.0631 16.725C30.9131 16.7083 30.7964 16.6583 30.7131 16.575C30.6298 16.475 30.5881 16.35 30.5881 16.2C30.5881 15.9333 30.7131 15.6917 30.9631 15.475C31.2131 15.2417 31.5548 15.125 31.9881 15.125C32.3548 15.125 32.6298 15.2333 32.8131 15.45C32.9964 15.6667 33.0881 15.9583 33.0881 16.325C33.0881 16.725 32.9631 17.1333 32.7131 17.55C32.4631 17.9667 32.1048 18.3167 31.6381 18.6C31.1714 18.8667 30.6381 19 30.0381 19H23.4131L29.7881 7.85ZM38.0064 25.25C37.2231 25.25 36.5314 24.9917 35.9314 24.475C35.3481 23.975 35.0564 23.3333 35.0564 22.55C35.0564 21.8167 35.2398 21.2167 35.6064 20.75C35.9731 20.2833 36.4481 19.9167 37.0314 19.65C37.6148 19.3833 38.3981 19.1 39.3814 18.8L39.6314 17.7C38.7814 18.6667 37.7648 19.15 36.5814 19.15C35.7814 19.15 35.1314 18.9 34.6314 18.4C34.1481 17.9 33.9064 17.15 33.9064 16.15C33.9064 15.7333 33.9731 15.1917 34.1064 14.525L35.8064 6.5H39.4064L37.6064 15C37.5564 15.2 37.5314 15.4083 37.5314 15.625C37.5314 16.3583 37.7814 16.725 38.2814 16.725C38.7481 16.725 39.1481 16.5333 39.4814 16.15C39.8148 15.75 40.0814 15.2083 40.2814 14.525L41.9814 6.5H45.6064L42.5564 21C42.2231 22.6 41.6314 23.7083 40.7814 24.325C39.9481 24.9417 39.0231 25.25 38.0064 25.25ZM37.4314 23.025C37.7314 23.025 38.0148 22.8667 38.2814 22.55C38.5481 22.25 38.7564 21.7583 38.9064 21.075L39.2064 19.6C38.3231 19.9 37.6398 20.25 37.1564 20.65C36.6731 21.05 36.4314 21.5667 36.4314 22.2C36.4314 22.4 36.5314 22.5833 36.7314 22.75C36.9314 22.9333 37.1648 23.025 37.4314 23.025ZM56.9754 19.4C55.0921 19.4 53.7087 18.925 52.8254 17.975C51.9421 17.025 51.5004 15.45 51.5004 13.25C51.5004 11.5 51.7921 9.61667 52.3754 7.6C52.9754 5.58333 53.9254 3.85833 55.2254 2.425C56.5421 0.974999 58.2087 0.249999 60.2254 0.249999C61.4754 0.249999 62.4837 0.524999 63.2504 1.075C64.0171 1.625 64.4004 2.46667 64.4004 3.6C64.4004 4.31667 64.2587 4.88333 63.9754 5.3C63.6921 5.7 63.2504 5.9 62.6504 5.9C62.0504 5.9 61.5754 5.68333 61.2254 5.25C61.5254 5.1 61.7921 4.8 62.0254 4.35C62.2587 3.9 62.3754 3.43333 62.3754 2.95C62.3754 2.5 62.2504 2.13333 62.0004 1.85C61.7671 1.56667 61.3837 1.425 60.8504 1.425C59.9671 1.425 59.1254 2.03333 58.3254 3.25C57.5254 4.45 56.8754 5.96667 56.3754 7.8C55.8921 9.63333 55.6504 11.4 55.6504 13.1C55.6504 14.3667 55.8671 15.3333 56.3004 16C56.7337 16.6667 57.5171 17 58.6504 17C59.6337 17 60.5421 16.7833 61.3754 16.35C62.2087 15.9167 62.9254 15.3 63.5254 14.5L64.1004 14.75C63.6837 15.8 63.0671 16.675 62.2504 17.375C61.4337 18.075 60.5587 18.5917 59.6254 18.925C58.6921 19.2417 57.8087 19.4 56.9754 19.4ZM66.4521 19.15C65.5021 19.15 64.7105 18.825 64.0771 18.175C63.4438 17.525 63.1271 16.5083 63.1271 15.125C63.1271 13.8917 63.3688 12.6 63.8521 11.25C64.3521 9.88333 65.0855 8.73333 66.0521 7.8C67.0355 6.85 68.2021 6.375 69.5521 6.375C70.2355 6.375 70.7438 6.49167 71.0771 6.725C71.4105 6.95833 71.5771 7.26667 71.5771 7.65V7.825L71.8521 6.5H75.4521L73.6521 15C73.5855 15.25 73.5521 15.5167 73.5521 15.8C73.5521 16.5167 73.8938 16.875 74.5771 16.875C75.0438 16.875 75.4438 16.6583 75.7771 16.225C76.1271 15.7917 76.4021 15.225 76.6021 14.525H77.6521C77.0355 16.325 76.2688 17.55 75.3521 18.2C74.4521 18.8333 73.5438 19.15 72.6271 19.15C71.9271 19.15 71.3605 18.9583 70.9271 18.575C70.5105 18.175 70.2605 17.6 70.1771 16.85C69.6938 17.5333 69.1521 18.0917 68.5521 18.525C67.9688 18.9417 67.2688 19.15 66.4521 19.15ZM68.0771 16.725C68.4938 16.725 68.9021 16.5333 69.3021 16.15C69.7188 15.75 70.0021 15.2083 70.1521 14.525L71.3521 8.875C71.3521 8.65833 71.2688 8.45 71.1021 8.25C70.9355 8.03333 70.6771 7.925 70.3271 7.925C69.6605 7.925 69.0605 8.31667 68.5271 9.1C67.9938 9.86667 67.5771 10.8 67.2771 11.9C66.9771 12.9833 66.8271 13.9417 66.8271 14.775C66.8271 15.6083 66.9438 16.1417 67.1771 16.375C67.4271 16.6083 67.7271 16.725 68.0771 16.725ZM79.4613 19.15C78.4947 19.15 77.7363 18.9083 77.1863 18.425C76.653 17.925 76.3863 17.1833 76.3863 16.2C76.3863 15.8 76.428 15.4 76.5113 15L78.3113 6.5H81.9113L80.1113 15C80.028 15.4167 79.9863 15.7167 79.9863 15.9C79.9863 16.45 80.2697 16.725 80.8363 16.725C81.603 16.725 82.3113 16.2417 82.9613 15.275C83.628 14.3083 84.1613 13.1583 84.5613 11.825C84.9613 10.4917 85.1613 9.34167 85.1613 8.375C85.128 8.45833 85.0197 8.525 84.8363 8.575C84.653 8.60833 84.4947 8.625 84.3613 8.625C84.078 8.625 83.853 8.49167 83.6863 8.225C83.5363 7.95833 83.4613 7.66667 83.4613 7.35C83.4613 6.95 83.5863 6.625 83.8363 6.375C84.103 6.125 84.4947 6 85.0113 6C85.5613 6 85.9613 6.20833 86.2113 6.625C86.4613 7.025 86.5863 7.54167 86.5863 8.175C86.5863 9.675 86.328 11.2833 85.8113 13C85.2947 14.7 84.503 16.15 83.4363 17.35C82.3697 18.55 81.0447 19.15 79.4613 19.15ZM90.4879 19.15C89.2712 19.15 88.3212 18.8333 87.6379 18.2C86.9546 17.55 86.6129 16.5417 86.6129 15.175C86.6129 14.025 86.8379 12.7583 87.2879 11.375C87.7379 9.99167 88.4712 8.8 89.4879 7.8C90.5046 6.78333 91.7962 6.275 93.3629 6.275C95.1962 6.275 96.1129 7.075 96.1129 8.675C96.1129 9.60833 95.8462 10.4667 95.3129 11.25C94.7796 12.0333 94.0712 12.6667 93.1879 13.15C92.3046 13.6167 91.3629 13.8833 90.3629 13.95C90.3296 14.3167 90.3129 14.5667 90.3129 14.7C90.3129 16.0833 90.8296 16.775 91.8629 16.775C92.3296 16.775 92.8296 16.65 93.3629 16.4C93.8962 16.15 94.3796 15.8333 94.8129 15.45C94.3629 17.9167 92.9212 19.15 90.4879 19.15ZM90.5379 12.75C91.1712 12.7333 91.7629 12.525 92.3129 12.125C92.8796 11.725 93.3296 11.2167 93.6629 10.6C94.0129 9.96667 94.1879 9.30833 94.1879 8.625C94.1879 7.94167 93.9796 7.6 93.5629 7.6C92.9796 7.6 92.3962 8.13333 91.8129 9.2C91.2462 10.25 90.8212 11.4333 90.5379 12.75Z" fill="#4E3D28"/>
</svg>
