<svg xmlns="http://www.w3.org/2000/svg" xmlns:xlink="http://www.w3.org/1999/xlink" version="1.1" x="0px" y="0px" viewBox="0 0 100 125" enable-background="new 0 0 100 100" xml:space="preserve"><g><path fill-rule="evenodd" clip-rule="evenodd" d="M93.351,46.915c-0.893-2.551-2.91-4.146-6.137-4.185   c-2.512-0.03-4.883,0.08-7.1,0.405c0.197-1.716,0.352-3.461,0.451-5.236c-22.088,0-44.405,0-67.926,0   c-0.474,16.416,6.024,30.951,16.416,44.436c11.935,0,23.868,0,35.801,0c2.119-3.006,4.059-6.112,5.801-9.333   c9.789-1.984,16.881-8.404,20.438-14.564c1.188-2.055,2-4.104,2.402-5.98C93.942,50.399,93.905,48.489,93.351,46.915z    M88.798,51.459c-0.299,1.397-0.928,2.962-1.857,4.57c-2.512,4.354-7.127,8.857-13.428,11.186   c2.66-5.952,4.656-12.287,5.865-19.076c2.326-0.488,4.936-0.649,7.777-0.615c0.916,0.012,1.459,0.381,1.666,0.969   C89.073,49.218,89.06,50.243,88.798,51.459z"/><path fill-rule="evenodd" clip-rule="evenodd" d="M6.198,85.918c0,4.462,3.64,8.104,8.104,8.104h69.793   c4.463,0,8.104-3.642,8.104-8.104v-0.246h-86V85.918z"/><path fill-rule="evenodd" clip-rule="evenodd" d="M48.417,36.706c-0.614-7.178-1.154-6.523-9.082-12.873   c-7.93-6.352,2.137-20.359,9.199-8.469c-4.973-11.816-17.252-2.022-14.336,4.863C37.236,27.403,46.53,29.886,48.417,36.706z"/><path fill-rule="evenodd" clip-rule="evenodd" d="M57.069,20.735c-8.471,7.206-6.738,11.311-7.623,15.28   c4.441-12.001,6.689-9.686,12.863-17.154c6.174-7.47-8.816-20.09-13.764-7.608C52.888,2.61,65.54,13.528,57.069,20.735z"/></g></svg>